<svg height="48" viewBox="0 0 184 48" width="184" xmlns="http://www.w3.org/2000/svg"><g fill="none" fill-rule="evenodd"><g fill="#fff"><rect height="6" rx="3" width="120" x="63.632924" y="1"/><rect height="6" rx="3" width="120" x="63.632924" y="21"/><rect height="6" rx="3" width="120" x="63.632924" y="11"/><rect height="6" rx="3" width="120" x="63.632924" y="31"/><rect height="6" rx="3" width="120" x="63.632924" y="41"/></g><rect fill="#262c4b" height="6" rx="3" width="112" x="63.632924" y="1"/><rect fill="#262c4b" height="6" rx="3" width="12" x="63.632924" y="21"/><rect fill="#262c4b" height="6" rx="3" width="64" x="63.632924" y="11"/><rect fill="#262c4b" height="6" rx="3" width="6" x="63.632924" y="31"/><g fill="#ff961a" fill-rule="nonzero"><path d="m4.20584888 6.63343683-2.59935756 1.36656317.49643312-2.89442721-2.10292444-2.04984471 2.9061701-.42229123 1.29967878-2.63343685 1.29967879 2.63343685 2.90617011.42229123-2.10292448 2.04984471.49643315 2.89442721z"/><path d="m16.6175467 6.63343683-2.5993576 1.36656317.4964332-2.89442721-2.1029245-2.04984471 2.9061701-.42229123 1.2996788-2.63343685 1.2996788 2.63343685 2.9061701.42229123-2.1029245 2.04984471.4964332 2.89442721z"/><path d="m29.0292445 6.63343683-2.5993576 1.36656317.4964332-2.89442721-2.1029245-2.04984471 2.9061701-.42229123 1.2996788-2.63343685 1.2996788 2.63343685 2.9061701.42229123-2.1029245 2.04984471.4964332 2.89442721z"/><path d="m41.4409423 6.63343683-2.5993576 1.36656317.4964332-2.89442721-2.1029245-2.04984471 2.9061701-.42229123 1.2996788-2.63343685 1.2996788 2.63343685 2.9061701.42229123-2.1029245 2.04984471.4964332 2.89442721z"/><path d="m53.8526401 6.63343683-2.5993576 1.36656317.4964332-2.89442721-2.1029245-2.04984471 2.9061701-.42229123 1.2996788-2.63343685 1.2996788 2.63343685 2.9061701.42229123-2.1029245 2.04984471.4964332 2.89442721z"/></g><g fill-rule="nonzero" transform="translate(0 20)"><g fill="#ff961a"><path d="m4.20584888 6.63343683-2.59935756 1.36656317.49643312-2.89442721-2.10292444-2.04984471 2.9061701-.42229123 1.29967878-2.63343685 1.29967879 2.63343685 2.90617011.42229123-2.10292448 2.04984471.49643315 2.89442721z"/><path d="m16.6175467 6.63343683-2.5993576 1.36656317.4964332-2.89442721-2.1029245-2.04984471 2.9061701-.42229123 1.2996788-2.63343685 1.2996788 2.63343685 2.9061701.42229123-2.1029245 2.04984471.4964332 2.89442721z"/><path d="m29.0292445 6.63343683-2.5993576 1.36656317.4964332-2.89442721-2.1029245-2.04984471 2.9061701-.42229123 1.2996788-2.63343685 1.2996788 2.63343685 2.9061701.42229123-2.1029245 2.04984471.4964332 2.89442721z"/></g><path d="m41.4409423 6.63343683-2.5993576 1.36656317.4964332-2.89442721-2.1029245-2.04984471 2.9061701-.42229123 1.2996788-2.63343685 1.2996788 2.63343685 2.9061701.42229123-2.1029245 2.04984471.4964332 2.89442721z" fill="#fff"/><path d="m53.8526401 6.63343683-2.5993576 1.36656317.4964332-2.89442721-2.1029245-2.04984471 2.9061701-.42229123 1.2996788-2.63343685 1.2996788 2.63343685 2.9061701.42229123-2.1029245 2.04984471.4964332 2.89442721z" fill="#fff"/></g><g fill-rule="nonzero" transform="translate(0 10)"><g fill="#ff961a"><path d="m4.20584888 6.63343683-2.59935756 1.36656317.49643312-2.89442721-2.10292444-2.04984471 2.9061701-.42229123 1.29967878-2.63343685 1.29967879 2.63343685 2.90617011.42229123-2.10292448 2.04984471.49643315 2.89442721z"/><path d="m16.6175467 6.63343683-2.5993576 1.36656317.4964332-2.89442721-2.1029245-2.04984471 2.9061701-.42229123 1.2996788-2.63343685 1.2996788 2.63343685 2.9061701.42229123-2.1029245 2.04984471.4964332 2.89442721z"/><path d="m29.0292445 6.63343683-2.5993576 1.36656317.4964332-2.89442721-2.1029245-2.04984471 2.9061701-.42229123 1.2996788-2.63343685 1.2996788 2.63343685 2.9061701.42229123-2.1029245 2.04984471.4964332 2.89442721z"/><path d="m41.4409423 6.63343683-2.5993576 1.36656317.4964332-2.89442721-2.1029245-2.04984471 2.9061701-.42229123 1.2996788-2.63343685 1.2996788 2.63343685 2.9061701.42229123-2.1029245 2.04984471.4964332 2.89442721z"/></g><path d="m53.8526401 6.63343683-2.5993576 1.36656317.4964332-2.89442721-2.1029245-2.04984471 2.9061701-.42229123 1.2996788-2.63343685 1.2996788 2.63343685 2.9061701.42229123-2.1029245 2.04984471.4964332 2.89442721z" fill="#fff"/></g><g fill-rule="nonzero" transform="translate(0 30)"><path d="m4.20584888 6.63343683-2.59935756 1.36656317.49643312-2.89442721-2.10292444-2.04984471 2.9061701-.42229123 1.29967878-2.63343685 1.29967879 2.63343685 2.90617011.42229123-2.10292448 2.04984471.49643315 2.89442721z" fill="#ff961a"/><path d="m16.6175467 6.63343683-2.5993576 1.36656317.4964332-2.89442721-2.1029245-2.04984471 2.9061701-.42229123 1.2996788-2.63343685 1.2996788 2.63343685 2.9061701.42229123-2.1029245 2.04984471.4964332 2.89442721z" fill="#ff961a"/><g fill="#fff"><path d="m29.0292445 6.63343683-2.5993576 1.36656317.4964332-2.89442721-2.1029245-2.04984471 2.9061701-.42229123 1.2996788-2.63343685 1.2996788 2.63343685 2.9061701.42229123-2.1029245 2.04984471.4964332 2.89442721z"/><path d="m41.4409423 6.63343683-2.5993576 1.36656317.4964332-2.89442721-2.1029245-2.04984471 2.9061701-.42229123 1.2996788-2.63343685 1.2996788 2.63343685 2.9061701.42229123-2.1029245 2.04984471.4964332 2.89442721z"/><path d="m53.8526401 6.63343683-2.5993576 1.36656317.4964332-2.89442721-2.1029245-2.04984471 2.9061701-.42229123 1.2996788-2.63343685 1.2996788 2.63343685 2.9061701.42229123-2.1029245 2.04984471.4964332 2.89442721z"/></g></g><g fill-rule="nonzero" transform="translate(0 40)"><path d="m4.20584888 6.63343683-2.59935756 1.36656317.49643312-2.89442721-2.10292444-2.04984471 2.9061701-.42229123 1.29967878-2.63343685 1.29967879 2.63343685 2.90617011.42229123-2.10292448 2.04984471.49643315 2.89442721z" fill="#ff961a"/><g fill="#fff"><path d="m16.6175467 6.63343683-2.5993576 1.36656317.4964332-2.89442721-2.1029245-2.04984471 2.9061701-.42229123 1.2996788-2.63343685 1.2996788 2.63343685 2.9061701.42229123-2.1029245 2.04984471.4964332 2.89442721z"/><path d="m29.0292445 6.63343683-2.5993576 1.36656317.4964332-2.89442721-2.1029245-2.04984471 2.9061701-.42229123 1.2996788-2.63343685 1.2996788 2.63343685 2.9061701.42229123-2.1029245 2.04984471.4964332 2.89442721z"/><path d="m41.4409423 6.63343683-2.5993576 1.36656317.4964332-2.89442721-2.1029245-2.04984471 2.9061701-.42229123 1.2996788-2.63343685 1.2996788 2.63343685 2.9061701.42229123-2.1029245 2.04984471.4964332 2.89442721z"/><path d="m53.8526401 6.63343683-2.5993576 1.36656317.4964332-2.89442721-2.1029245-2.04984471 2.9061701-.42229123 1.2996788-2.63343685 1.2996788 2.63343685 2.9061701.42229123-2.1029245 2.04984471.4964332 2.89442721z"/></g></g></g></svg>